<?xml version="1.0" encoding="utf-8"?>
<!-- Generator: Adobe Illustrator 18.1.1, SVG Export Plug-In . SVG Version: 6.00 Build 0)  -->
<svg version="1.1" id="Layer_1" xmlns="http://www.w3.org/2000/svg" xmlns:xlink="http://www.w3.org/1999/xlink" x="0px" y="0px"
	 viewBox="0 0 135 75" enable-background="new 0 0 135 75" xml:space="preserve">
<g>
	<path fill="#F89820" d="M3.1,26.4c0.6-0.1,1.1-0.7,1-1.3l9.7-1.1c0.1,0.7,0.7,1.1,1.3,1.1l3.1,27.4L19,53c-1.8,0.2-3.6,0.4-5.4,0.6
		l0.6-0.7l-1.6-14.6L9,42.7l1.2,10.6l0.7,0.6c-1.8,0.2-3.6,0.4-5.4,0.6l0.6-0.7c-0.3-2.4-0.5-4.6-0.7-6.5l-0.6,0.7l-0.6-5.8l0.6-0.7
		C4.3,36.8,3.8,32.5,3.1,26.4z M11.4,28.4l-3.9,0.4l0.9,8.1l3.5-4.4L11.4,28.4z"/>
	<path fill="#F89820" d="M23,52.6l0.6-0.7c-0.8-11.1-1.2-16.4-2-27.5c0.6,0,1.1-0.6,1.1-1.2l2.9-0.2l1.8,25.3
		c2.5-0.2,4.9-0.4,7.4-0.5l0.6-0.7c0.1,1.6,0.2,3.2,0.3,4.8C31.5,52,27.2,52.3,23,52.6z"/>
	<path fill="#F89820" d="M52.6,50.3l0.7,0.6c-4.5,0.2-9,0.4-13.5,0.5l0.7-0.7c-0.4-11.1-0.6-16.4-1.1-27.5c0.6,0,1.1-0.6,1.1-1.3
		l9.8-0.4c0,0.7,0.6,1.2,1.3,1.2l0.1,2.8l-3.9,4.3l-0.2-4.1l-4,0.2l0.8,21.2l4-0.2l-0.2-4.5l3.9-4.2L52.6,50.3z"/>
	<path fill="#F89820" d="M62,33.6l4-4.1l-0.1-8.2l2.9,0c0,0.6,0.5,1.2,1.2,1.2l0.2,27.6l0.7,0.7c-1.8,0-3.6,0-5.4,0l0.7-0.7L66,35.3
		l-4,4.1l0.1,10.7l0.7,0.7c-1.8,0-3.6,0-5.4,0l0.7-0.7c0-2.4,0-4.6,0-6.6l-0.7,0.7l0-5.8l0.7-0.7c0-4.6-0.1-9-0.1-15.2
		c0.6,0,1.2-0.5,1.2-1.2c1,0,1.9,0,2.9,0L62,33.6z"/>
	<path fill="#F89820" d="M87.8,50.4l0.7,0.7c-4.5-0.1-9-0.2-13.5-0.3l0.7-0.7c0.1-2.4,0.1-4.6,0.2-6.6l-0.7,0.7l0.1-5.8l0.7-0.7
		c0.1-4.6,0.2-9,0.4-15.1c0.7,0,1.2-0.5,1.2-1.2l9.7,0.2c0,0.7,0.5,1.2,1.2,1.2l-0.1,2.9l-4.2,4.1l0.1-4.1l-4-0.1l-0.2,8.1l2.3-2.3
		l-0.1,5.8L80,39.6l-0.2,7.2l4,0.1l0.1-4.5l4.2-4L87.8,50.4z"/>
	<path fill="#F89820" d="M113.3,51.9l0.6,0.7c-1.8-0.1-3.6-0.2-5.4-0.4l0.7-0.6c0.7-10.1,0.9-14.5,1.6-24.6l-2.7-0.2l-1.4,1.3
		l-1.5,23.2l0.6,0.7c-1.8-0.1-3.6-0.2-5.4-0.4l0.7-0.6c0.6-9.6,1.5-23.3,1.5-23.2l-1.3-1.4l-2.6-0.2l-1.6,24.6l0.6,0.7
		c-1.8-0.1-3.6-0.2-5.4-0.4l0.7-0.6c0.7-11.1,1.1-16.4,1.8-27.5c0.6,0,1.2-0.5,1.2-1.1c2.5,0.2,4.8,0.3,7.2,0.5l1.6,1.8l1.8-1.6
		l7.2,0.5c0,0.7,0.5,1.2,1.1,1.3C114.4,35.5,114,40.8,113.3,51.9z"/>
	<path fill="#F89820" d="M120.1,33.6l1-8.6c0.7,0.1,1.3-0.4,1.3-1l2.9,0.3l-0.9,8.1l1.7,2.2l2.2-1.8l0.9-8.1L132,25
		c-0.1,0.6,0.4,1.2,1.1,1.3l-1,8.6l-4.4,3.6L126,53.3l0.6,0.7c-1.8-0.2-3.6-0.4-5.3-0.6l0.7-0.6l1.6-14.7L120.1,33.6z"/>
</g>
<g>
	<path fill="#FFFFFF" d="M2.8,26.1c0.6-0.1,1.1-0.7,1-1.3l9.7-1.1c0.1,0.7,0.7,1.1,1.3,1.1l3.1,27.4l0.7,0.6
		c-1.8,0.2-3.6,0.4-5.4,0.6l0.6-0.7l-1.6-14.6l-3.5,4.5L9.9,53l0.7,0.6c-1.8,0.2-3.6,0.4-5.4,0.6l0.6-0.7c-0.3-2.4-0.5-4.6-0.7-6.5
		l-0.6,0.7l-0.6-5.8l0.6-0.7C4,36.5,3.5,32.2,2.8,26.1z M11.1,28.1l-3.9,0.4l0.9,8.1l3.5-4.4L11.1,28.1z"/>
	<path fill="#FFFFFF" d="M22.7,52.3l0.6-0.7c-0.8-11.1-1.2-16.4-2-27.5c0.6,0,1.1-0.6,1.1-1.2l2.9-0.2l1.8,25.3
		c2.5-0.2,4.9-0.4,7.4-0.5l0.6-0.7c0.1,1.6,0.2,3.2,0.3,4.8C31.2,51.7,26.9,52,22.7,52.3z"/>
	<path fill="#FFFFFF" d="M52.3,50l0.7,0.6c-4.5,0.2-9,0.4-13.5,0.5l0.7-0.7c-0.4-11.1-0.6-16.4-1.1-27.5c0.6,0,1.1-0.6,1.1-1.3
		l9.8-0.4c0,0.7,0.6,1.2,1.3,1.2l0.1,2.8l-3.9,4.3l-0.2-4.1l-4,0.2l0.8,21.2l4-0.2L48,42.2l3.9-4.2L52.3,50z"/>
	<path fill="#FFFFFF" d="M61.7,33.3l4-4.1l-0.1-8.2l2.9,0c0,0.6,0.5,1.2,1.2,1.2l0.2,27.6l0.7,0.7c-1.8,0-3.6,0-5.4,0l0.7-0.7
		L65.7,35l-4,4.1l0.1,10.7l0.7,0.7c-1.8,0-3.6,0-5.4,0l0.7-0.7c0-2.4,0-4.6,0-6.6l-0.7,0.7l0-5.8l0.7-0.7c0-4.6-0.1-9-0.1-15.2
		c0.6,0,1.2-0.5,1.2-1.2c1,0,1.9,0,2.9,0L61.7,33.3z"/>
	<path fill="#FFFFFF" d="M87.5,50.1l0.7,0.7c-4.5-0.1-9-0.2-13.5-0.3l0.7-0.7c0.1-2.4,0.1-4.6,0.2-6.6l-0.7,0.7l0.1-5.8l0.7-0.7
		c0.1-4.6,0.2-9,0.4-15.1c0.7,0,1.2-0.5,1.2-1.2l9.7,0.2c0,0.7,0.5,1.2,1.2,1.2l-0.1,2.9l-4.2,4.1l0.1-4.1l-4-0.1l-0.2,8.1l2.3-2.3
		L82.1,37l-2.4,2.3l-0.2,7.2l4,0.1l0.1-4.5l4.2-4L87.5,50.1z"/>
	<path fill="#FFFFFF" d="M113,51.6l0.6,0.7c-1.8-0.1-3.6-0.2-5.4-0.4l0.7-0.6c0.7-10.1,0.9-14.5,1.6-24.6l-2.7-0.2l-1.4,1.3
		L105,51.1l0.6,0.7c-1.8-0.1-3.6-0.2-5.4-0.4l0.7-0.6c0.6-9.6,1.5-23.3,1.5-23.2l-1.3-1.4L98.5,26l-1.6,24.6l0.6,0.7
		c-1.8-0.1-3.6-0.2-5.4-0.4l0.7-0.6c0.7-11.1,1.1-16.4,1.8-27.5c0.6,0,1.2-0.5,1.2-1.1c2.5,0.2,4.8,0.3,7.2,0.5l1.6,1.8l1.8-1.6
		l7.2,0.5c0,0.7,0.5,1.2,1.1,1.3C114.1,35.2,113.8,40.5,113,51.6z"/>
	<path fill="#FFFFFF" d="M119.8,33.3l1-8.6c0.7,0.1,1.3-0.4,1.3-1L125,24l-0.9,8.1l1.7,2.2l2.2-1.8l0.9-8.1l2.9,0.3
		c-0.1,0.6,0.4,1.2,1.1,1.3l-1,8.6l-4.4,3.6L125.7,53l0.6,0.7c-1.8-0.2-3.6-0.4-5.3-0.6l0.7-0.6l1.6-14.7L119.8,33.3z"/>
</g>
<g>
	<path fill="#231F20" d="M2.1,25.5c0.6-0.1,1.1-0.7,1-1.3l9.7-1.1c0.1,0.7,0.7,1.1,1.3,1.1l3.1,27.4l0.7,0.6
		c-1.8,0.2-3.6,0.4-5.4,0.6l0.6-0.7l-1.6-14.6L8,41.8l1.2,10.6L9.9,53c-1.8,0.2-3.6,0.4-5.4,0.6l0.6-0.7c-0.3-2.4-0.5-4.6-0.7-6.5
		L3.8,47l-0.6-5.8l0.6-0.7C3.3,35.9,2.8,31.6,2.1,25.5z M10.4,27.5l-3.9,0.4L7.4,36l3.5-4.4L10.4,27.5z"/>
	<path fill="#231F20" d="M22,51.7l0.6-0.7c-0.8-11.1-1.2-16.4-2-27.5c0.6,0,1.1-0.6,1.1-1.2l2.9-0.2l1.8,25.3
		c2.5-0.2,4.9-0.4,7.4-0.5l0.6-0.7c0.1,1.6,0.2,3.2,0.3,4.8C30.5,51.1,26.2,51.4,22,51.7z"/>
	<path fill="#231F20" d="M51.6,49.4l0.7,0.6c-4.5,0.2-9,0.4-13.5,0.5l0.7-0.7c-0.4-11.1-0.6-16.4-1.1-27.5c0.6,0,1.1-0.6,1.1-1.3
		l9.8-0.4c0,0.7,0.6,1.2,1.3,1.2l0.1,2.8L46.7,29l-0.2-4.1l-4,0.2l0.8,21.2l4-0.2l-0.2-4.5l3.9-4.2L51.6,49.4z"/>
	<path fill="#231F20" d="M61,32.7l4-4.1l-0.1-8.2l2.9,0c0,0.6,0.5,1.2,1.2,1.2l0.2,27.6l0.7,0.7c-1.8,0-3.6,0-5.4,0l0.7-0.7L65,34.4
		l-4,4.1l0.1,10.7l0.7,0.7c-1.8,0-3.6,0-5.4,0l0.7-0.7c0-2.4,0-4.6,0-6.6l-0.7,0.7l0-5.8l0.7-0.7c0-4.6-0.1-9-0.1-15.2
		c0.6,0,1.2-0.5,1.2-1.2c1,0,1.9,0,2.9,0L61,32.7z"/>
	<path fill="#231F20" d="M86.8,49.5l0.7,0.7c-4.5-0.1-9-0.2-13.5-0.3l0.7-0.7c0.1-2.4,0.1-4.6,0.2-6.6l-0.7,0.7l0.1-5.8l0.7-0.7
		c0.1-4.6,0.2-9,0.4-15.1c0.7,0,1.2-0.5,1.2-1.2l9.7,0.2c0,0.7,0.5,1.2,1.2,1.2l-0.1,2.9l-4.2,4.1l0.1-4.1l-4-0.1l-0.2,8.1l2.3-2.3
		l-0.1,5.8L79,38.7l-0.2,7.2l4,0.1l0.1-4.5l4.2-4L86.8,49.5z"/>
	<path fill="#231F20" d="M112.3,51l0.6,0.7c-1.8-0.1-3.6-0.2-5.4-0.4l0.7-0.6c0.7-10.1,0.9-14.5,1.6-24.6l-2.7-0.2l-1.4,1.3
		l-1.5,23.2l0.6,0.7c-1.8-0.1-3.6-0.2-5.4-0.4l0.7-0.6c0.6-9.6,1.5-23.3,1.5-23.2l-1.3-1.4l-2.6-0.2l-1.6,24.6l0.6,0.7
		c-1.8-0.1-3.6-0.2-5.4-0.4l0.7-0.6c0.7-11.1,1.1-16.4,1.8-27.5c0.6,0,1.2-0.5,1.2-1.1c2.5,0.2,4.8,0.3,7.2,0.5l1.6,1.8l1.8-1.6
		l7.2,0.5c0,0.7,0.5,1.2,1.1,1.3C113.4,34.6,113,39.9,112.3,51z"/>
	<path fill="#231F20" d="M119.1,32.7l1-8.6c0.7,0.1,1.3-0.4,1.3-1l2.9,0.3l-0.9,8.1l1.7,2.2l2.2-1.8l0.9-8.1l2.9,0.3
		c-0.1,0.6,0.4,1.2,1.1,1.3l-1,8.6l-4.4,3.6L125,52.4l0.6,0.7c-1.8-0.2-3.6-0.4-5.3-0.6l0.7-0.6l1.6-14.7L119.1,32.7z"/>
</g>
<g>
	<path fill="#231F20" d="M33,63.3c-0.2,0.1-0.3,0-0.4-0.1c-0.1-0.1-0.1-0.3-0.2-0.5c-0.6-1.2-1.5-1.5-2.4-1.5
		c-1.5,0.1-2.6,1.3-2.4,3.8c0.2,2.2,1.6,3.8,3.3,3.7c0.9-0.1,1.6-0.5,2-1.2c0.2-0.4,0.3-0.6,0.6-0.7c0.2,0,0.6,0.2,0.7,0.4
		c0,0.1,0,0.3-0.1,0.5c-0.4,0.9-1.4,2-3.5,2.1c-2.4,0.2-4.9-1.5-5.1-4.7c-0.2-2.9,1.7-4.9,4.1-5c1.4-0.1,2.2,0.4,2.8,1
		c0.3,0,0.4-0.4,0.4-0.8c0-0.2,0.1-0.3,0.3-0.3l0.5,0l0.4,2.8L33,63.3z"/>
	<path fill="#231F20" d="M46.7,66.9c-0.2,0.5-0.3,1.1-0.4,1.6c0,0.2-0.2,0.4-0.4,0.4l-7.3,0.3l0-0.8c0.6-0.1,0.9-0.4,0.9-0.7
		l-0.3-6.4c0-0.3-0.4-0.6-1-0.6l0-0.8l7.1-0.3c0.2,0,0.3,0,0.3,0.3l0.1,1.7l-0.8,0L44.5,61c-0.2-0.4-0.6-0.4-1.2-0.4l-2.1,0.1l0.1,3
		l2.4-0.1c0.5,0,0.6-0.2,0.7-0.7l0.5,0l0.1,2.3l-0.5,0c-0.2-0.5-0.3-0.6-0.8-0.6l-2.4,0.1l0.2,3.2l3-0.2c0.5,0,0.7-0.1,1-0.4
		l0.4-0.5L46.7,66.9z"/>
	<path fill="#231F20" d="M58.5,68.1c0,0.2-0.2,0.4-0.4,0.4l-7.4,0.2l0-0.8c0.6-0.1,1-0.3,0.9-0.7l-0.2-6.4c0-0.3-0.4-0.6-1-0.6
		l0-0.8l4-0.1l0,0.8c-0.6,0.1-1,0.3-0.9,0.7l0.1,6.2c0,0.3,0.3,0.7,0.7,0.6l2.1-0.2c0.6,0,1-0.1,1.2-0.5l0.2-0.5l1,0L58.5,68.1z"/>
	<path fill="#231F20" d="M70.5,68c0,0.2-0.3,0.3-0.4,0.3l-7.4,0l0-0.8c0.6-0.1,1-0.3,1-0.7l0-6.4c0-0.3-0.4-0.6-1-0.7l0-0.8l4,0
		l0,0.8c-0.6,0.1-1,0.3-1,0.7l0,6.2c0,0.3,0.3,0.7,0.7,0.7l2.1-0.1c0.6,0,1,0,1.2-0.5l0.2-0.5l1,0L70.5,68z"/>
	<path fill="#231F20" d="M83.4,66.6c0.4,1,0.6,1.1,1.3,1.3l0,0.8L81,68.5l0-0.8c0.8-0.1,0.8-0.2,0.7-0.5l-0.8-1.9l-3.2-0.1L76.9,67
		c-0.1,0.3,0.1,0.5,0.8,0.6l0,0.8l-3.1-0.1l0-0.8c0.8-0.1,0.8-0.1,1.1-0.8l3.5-7.7l0.7,0.2c0.2,0.1,0.5,0.3,0.6,0.5L83.4,66.6z
		 M79.4,61.5l-1.2,2.8l2.4,0L79.4,61.5z"/>
	<path fill="#231F20" d="M96.5,69.1c-0.9-0.3-1.5-1-2-2.5c-0.4-1.2-1-1.6-1.7-1.6l-0.9,0l-0.1,2.5c0,0.3,0.3,0.6,0.9,0.7l0,0.8
		l-3.9-0.2l0-0.8c0.6-0.1,1-0.3,1-0.6l0.3-6.4c0-0.3-0.3-0.6-0.9-0.7l0-0.8l4.9,0.2c2.2,0.1,3.5,1.2,3.5,2.7
		c-0.1,1.1-0.9,2.2-2.9,2.3c1.3,0.2,2,1,2.4,2c0.3,0.9,0.5,1.6,1.2,1.8l0.3,0l0,0.8L96.5,69.1z M93.7,64c1.2,0.1,1.6-0.8,1.7-1.7
		c0-1-0.3-1.8-1.4-1.8l-1.9-0.1l-0.2,3.5L93.7,64z"/>
	<path fill="#231F20" d="M109.1,63.5c-0.2,0-0.3,0-0.3-0.2l-0.1-0.6c-0.1-0.7-1.1-1.4-2.1-1.5c-1.1-0.1-1.7,0.6-1.7,1.4
		c0,0.8,0.8,1.1,2,1.6c0.9,0.4,3.3,1.1,3.3,3.1c0.1,2.1-2.2,2.8-3.9,2.7c-1.6-0.1-2.3-1-3.2-0.7l-0.6-2.4l0.8-0.2
		c0.2-0.1,0.4,0,0.5,0.2c0.1,0.2,0.2,0.4,0.3,0.6c0.4,0.9,1.1,1.4,2.3,1.4c1.1,0.1,1.9-0.2,1.9-1.1c0-1-1.1-1.3-2.2-1.7
		c-1.1-0.4-2.8-1.2-2.9-3.1c-0.1-1.7,1.4-2.9,3.6-2.8c1.9,0.1,2.4,1.1,3.3,1.3l0.1,1.9L109.1,63.5z"/>
</g>
<g>
	<path fill="#231F20" d="M43.7,11.3c0.1-0.2,0.2-0.4,0.4-0.5c0.2-0.2,0.4-0.4,0.6-0.5c0.2-0.1,0.4-0.2,0.6-0.3l0.2,0
		c0.2,0,0.4,0.1,0.5,0.2s0.2,0.3,0.2,0.5c0,0.3-0.1,0.5-0.4,0.7c-0.2,0.2-0.5,0.3-0.8,0.4c-0.3,0.1-0.4,0.2-0.5,0.2
		c0,0.1,0,0.1,0.1,0.2c0.1,0.1,0.4,0.1,0.8,0.2c0.4,0,0.7,0,1-0.1c0.3-0.1,0.5-0.1,0.6-0.2c0.2-0.1,0.3-0.1,0.4-0.2
		c0.1,0,0.2,0,0.2,0.1c-0.2,0.2-0.3,0.4-0.5,0.5c-0.2,0.1-0.4,0.2-0.7,0.3c-0.3,0.1-0.7,0.1-1.1,0.2H45c-0.5,0-0.8-0.1-0.9-0.2
		c-0.2-0.1-0.3-0.2-0.4-0.3c-0.1-0.1-0.2-0.3-0.2-0.5C43.5,11.7,43.6,11.5,43.7,11.3z M44.4,11.4c0.4-0.1,0.6-0.2,0.8-0.4
		c0.1-0.1,0.2-0.2,0.2-0.3c0-0.1-0.1-0.1-0.3,0c-0.2,0.1-0.3,0.2-0.4,0.3C44.5,11.2,44.4,11.3,44.4,11.4z"/>
	<path fill="#231F20" d="M46.9,11.7c0-0.2,0-0.4,0.1-0.5c0-0.1,0.1-0.2,0.2-0.2c0.1,0,0.2-0.1,0.3,0c0.1,0,0.2,0.2,0.3,0.6
		c0.3-0.1,0.5-0.1,0.7-0.2c0.2-0.1,0.4-0.2,0.5-0.3c0.2-0.1,0.4-0.2,0.6-0.3c0.2-0.1,0.5-0.2,0.7-0.3c0.2-0.1,0.4-0.2,0.5-0.4
		s0.2-0.2,0.2-0.4c0.1-0.1,0.1-0.2,0.3-0.2c0.1,0,0.2,0,0.3,0.1c0.1,0.1,0.1,0.2,0.1,0.4c0,0.1,0,0.2-0.1,0.3c0,0.1-0.1,0.2-0.2,0.3
		c-0.1,0.1-0.3,0.2-0.4,0.3c-0.1,0.1-0.3,0.2-0.5,0.3c-0.2,0.1-0.4,0.3-0.5,0.4s-0.3,0.4-0.4,0.5c-0.1,0.2-0.2,0.3-0.2,0.5
		c-0.1,0.1-0.2,0.2-0.4,0.3c-0.2,0.1-0.4,0.1-0.8,0.2c-0.2,0-0.4,0-0.5-0.1c-0.1-0.1-0.3-0.2-0.4-0.5C47,12.2,46.9,12,46.9,11.7z
		 M48.2,12.4c0.2,0,0.3-0.1,0.5-0.2c0.2-0.1,0.3-0.2,0.5-0.4c0.2-0.2,0.2-0.3,0.2-0.4c-0.4,0.3-0.7,0.5-0.9,0.5
		c-0.2,0.1-0.4,0.2-0.6,0.2C47.9,12.3,48,12.4,48.2,12.4z"/>
	<path fill="#231F20" d="M51.1,11.9c0.1-0.2,0.2-0.4,0.3-0.5c0.1-0.2,0.4-0.5,0.8-0.8c0.4-0.4,0.7-0.7,0.9-1c-0.3,0-0.5,0.1-0.6,0.1
		c-0.1,0-0.2-0.1-0.2-0.2c0-0.1,0-0.2,0.1-0.3c0.1-0.1,0.2-0.1,0.4-0.1C53,9,53.2,9,53.4,9c0.4-0.4,0.8-0.7,1-1
		c0.3-0.2,0.6-0.5,0.9-0.8c0.3-0.3,0.6-0.5,0.9-0.7c0.3-0.2,0.5-0.3,0.7-0.3c0.1,0.2,0,0.4-0.3,0.7S56,7.5,55.8,7.7
		c-0.2,0.2-0.4,0.4-0.6,0.6c-0.2,0.2-0.4,0.4-0.6,0.7c0.3,0,0.8-0.1,1.4-0.2c0.6-0.1,1.2-0.1,1.9-0.2c0.6-0.1,1.3-0.1,1.9-0.2
		c0.7,0,1.3-0.1,1.9-0.1c0.6,0,1.3,0,2,0c0.7,0,1.2,0,1.7,0.1c0.4,0,0.8,0.2,1,0.4c-0.3,0.1-0.5,0.1-0.7,0.1c-0.2,0-0.4-0.1-0.7-0.1
		c-0.2,0-0.5,0-0.9,0c-0.3,0-0.8,0-1.2,0c-0.5,0-1,0-1.6,0c-0.6,0-1.1,0-1.7,0.1c-0.6,0-1.1,0.1-1.6,0.2c-0.5,0.1-1,0.1-1.6,0.1
		c-0.6,0-0.9,0.1-1.2,0.1c-0.2,0-0.4,0-0.6,0.1c-0.2,0-0.3,0.1-0.4,0.1c-0.1,0-0.2,0.1-0.3,0.2c-0.1,0.1-0.2,0.2-0.4,0.4
		c-0.2,0.2-0.4,0.4-0.6,0.7c-0.2,0.3-0.4,0.5-0.6,0.7c-0.2,0.2-0.3,0.4-0.4,0.5c-0.1,0.2-0.1,0.3,0,0.4c0.1,0.1,0.2,0.2,0.3,0.2
		c0.2,0,0.5,0,0.9-0.2c0.4-0.2,0.8-0.3,1-0.4c0.2-0.1,0.3-0.2,0.4-0.2c0.1,0,0.2,0,0.2,0.1s0,0.2-0.2,0.4c-0.2,0.2-0.4,0.3-0.6,0.4
		c-0.2,0.1-0.4,0.2-0.6,0.3c-0.2,0.1-0.4,0.1-0.7,0.2c-0.2,0-0.3,0-0.5,0c-0.1,0-0.2,0-0.3,0c-0.2,0-0.4-0.1-0.6-0.2
		c-0.1-0.1-0.2-0.2-0.3-0.3C51,12.6,51,12.4,51,12.3c0,0,0,0,0,0C51,12.2,51,12.1,51.1,11.9z"/>
	<path fill="#231F20" d="M76,11.7c0-0.2,0-0.4,0.1-0.5c0-0.1,0.1-0.2,0.2-0.2c0.1,0,0.2-0.1,0.3,0c0.1,0,0.2,0.2,0.3,0.6
		c0.3-0.1,0.5-0.1,0.7-0.2c0.2-0.1,0.4-0.2,0.5-0.3c0.2-0.1,0.4-0.2,0.6-0.3c0.2-0.1,0.5-0.2,0.7-0.3c0.2-0.1,0.4-0.2,0.5-0.4
		c0.1-0.1,0.2-0.2,0.2-0.4c0.1-0.1,0.1-0.2,0.3-0.2c0.1,0,0.2,0,0.3,0.1c0.1,0.1,0.1,0.2,0.1,0.4c0,0.1,0,0.2-0.1,0.3
		c0,0.1-0.1,0.2-0.2,0.3c-0.1,0.1-0.3,0.2-0.4,0.3c-0.1,0.1-0.3,0.2-0.5,0.3c-0.2,0.1-0.4,0.3-0.5,0.4s-0.3,0.4-0.4,0.5
		c-0.1,0.2-0.2,0.3-0.2,0.5c-0.1,0.1-0.2,0.2-0.4,0.3c-0.2,0.1-0.4,0.1-0.8,0.2c-0.2,0-0.4,0-0.5-0.1c-0.1-0.1-0.3-0.2-0.4-0.5
		C76.1,12.2,76,12,76,11.7z M77.3,12.4c0.2,0,0.3-0.1,0.5-0.2c0.2-0.1,0.3-0.2,0.5-0.4c0.2-0.2,0.2-0.3,0.2-0.4
		c-0.4,0.3-0.7,0.5-0.9,0.5c-0.2,0.1-0.4,0.2-0.6,0.2C77,12.3,77.1,12.4,77.3,12.4z"/>
	<path fill="#231F20" d="M80.6,11.2c0.2-0.3,0.5-0.5,0.8-0.7c0.3-0.1,0.5-0.3,0.7-0.4c0.2-0.1,0.4-0.2,0.5-0.2
		c0.2,0,0.2,0.2,0.2,0.3c0,0.2-0.1,0.3-0.3,0.4c-0.2,0.1-0.3,0.2-0.4,0.4c-0.1,0.1-0.2,0.3-0.2,0.4c-0.1,0.2-0.1,0.3,0,0.5
		c0.1,0.2,0.2,0.3,0.3,0.3c0.2,0,0.4,0.1,0.7,0.1c0.3,0,0.6,0,0.8-0.1c0.2-0.1,0.5-0.1,0.6-0.3c0.2-0.1,0.3-0.1,0.5-0.1l0.1,0.2
		c-0.1,0.1-0.2,0.2-0.4,0.3c-0.2,0.1-0.3,0.2-0.5,0.2c-0.2,0.1-0.4,0.1-0.6,0.2c-0.3,0.1-0.6,0.1-1,0.2l-0.4,0
		c-0.3,0-0.6-0.1-0.7-0.2c-0.1-0.1-0.3-0.2-0.4-0.3C81.1,12.3,81,12.2,81,12c0-0.1,0-0.3,0.1-0.4c0-0.1,0-0.1-0.1,0
		c-0.1,0.2-0.3,0.3-0.5,0.4c-0.2,0.1-0.4,0.2-0.6,0.3s-0.3,0-0.3-0.4C80,11.8,80.4,11.5,80.6,11.2z M85.2,7.5l-0.2,0
		c-0.2-0.2-0.3-0.3-0.4-0.4c0.1-0.2,0.2-0.3,0.5-0.5l0.2,0c0.2,0.1,0.2,0.2,0.2,0.3c0,0.1,0.1,0.2,0.2,0.3l-0.1,0.2
		C85.6,7.4,85.4,7.4,85.2,7.5z"/>
	<path fill="#231F20" d="M84.5,11.7c0.1-0.1,0.3-0.2,0.6-0.4c0.3-0.2,0.6-0.4,0.9-0.6c0.4-0.2,0.6-0.3,0.8-0.4
		c0.2-0.1,0.4-0.1,0.6-0.2c0.2,0.1,0.3,0.2,0.4,0.4c0,0.2,0,0.4,0,0.6c-0.1,0.2-0.3,0.5-0.8,1c0.7-0.4,1.2-0.7,1.5-0.9
		c0.3-0.2,0.5-0.3,0.7-0.3c0.2,0,0.3,0,0.4,0.2s0.1,0.3,0,0.6c-0.1,0.3-0.2,0.5-0.1,0.6c0,0.1,0.3,0.1,0.9,0c0.6-0.2,1-0.3,1.3-0.4
		c0,0.2-0.1,0.4-0.2,0.5c-0.1,0.1-0.5,0.2-1,0.4c-0.6,0.2-1,0.2-1.3,0.2c-0.3-0.1-0.5-0.2-0.5-0.4c-0.1-0.2-0.1-0.3,0-0.5
		c0.1-0.2-0.1-0.1-0.5,0.1c-0.4,0.3-0.7,0.5-1,0.7c-0.3,0.2-0.5,0.3-0.7,0.3c-0.2,0-0.3,0-0.5-0.1c-0.1-0.1-0.2-0.2-0.2-0.4
		c0-0.2,0.1-0.3,0.3-0.5c0.2-0.1,0.4-0.3,0.5-0.5c0.2-0.2,0.3-0.3,0.3-0.5c0-0.2-0.1-0.2-0.3-0.2c-0.2,0.1-0.5,0.2-0.9,0.5
		c-0.4,0.3-0.7,0.5-0.8,0.5c-0.1,0.1-0.3,0.1-0.5,0.1C84.3,12,84.4,11.8,84.5,11.7z"/>
	<path fill="#231F20" d="M93.7,10.2c0,0.1,0,0.1,0,0.2c0,0.1-0.1,0.1-0.2,0.2s-0.1,0.1-0.1,0.2c0,0.1-0.1,0.2-0.2,0.2
		c-0.1,0-0.2,0-0.4,0c-0.1,0-0.2-0.1-0.3,0c-0.1,0-0.2,0.1-0.3,0.2c-0.1,0.1-0.2,0.3-0.3,0.4c-0.1,0.1-0.2,0.2-0.2,0.4
		c0,0.1,0,0.2,0,0.3c0.1,0.1,0.1,0.2,0.3,0.2c0.1,0,0.3,0,0.5,0c0.2,0,0.4-0.1,0.7-0.1c0.2-0.1,0.4-0.1,0.6-0.2
		c0.2-0.1,0.4-0.1,0.5-0.2c0.1-0.1,0.2,0,0.3,0.1c0,0.1-0.1,0.2-0.2,0.3c-0.1,0.1-0.2,0.1-0.4,0.2c-0.2,0.1-0.3,0.1-0.5,0.2
		c-0.2,0.1-0.4,0.1-0.6,0.2c-0.2,0.1-0.5,0.1-0.7,0.1h-0.2c-0.1,0-0.2,0-0.4-0.1c-0.1,0-0.2-0.1-0.3-0.2c-0.1-0.1-0.2-0.2-0.3-0.4
		l0-0.2c0-0.2,0.1-0.4,0.2-0.5c0.1-0.2,0.2-0.4,0.4-0.5c0.2-0.2,0.3-0.3,0.5-0.5c0.2-0.1,0.4-0.2,0.5-0.3c0.1-0.1,0.2-0.1,0.3-0.2
		c0,0,0.1-0.1,0.3-0.1c0.1,0,0.2-0.1,0.4-0.1c0.1,0,0.2,0,0.2,0.1C93.6,10.1,93.7,10.1,93.7,10.2z"/>
	<path fill="#231F20" d="M94.3,11.3c0.1-0.2,0.2-0.4,0.4-0.5c0.2-0.2,0.4-0.4,0.6-0.5c0.2-0.1,0.4-0.2,0.6-0.3l0.2,0
		c0.2,0,0.4,0.1,0.5,0.2c0.1,0.1,0.2,0.3,0.2,0.5c0,0.3-0.1,0.5-0.4,0.7c-0.2,0.2-0.5,0.3-0.8,0.4c-0.3,0.1-0.4,0.2-0.5,0.2
		c0,0.1,0,0.1,0.1,0.2c0.1,0.1,0.4,0.1,0.8,0.2c0.4,0,0.7,0,1-0.1c0.3-0.1,0.5-0.1,0.6-0.2c0.2-0.1,0.3-0.1,0.4-0.2
		c0.1,0,0.2,0,0.2,0.1c-0.2,0.2-0.3,0.4-0.5,0.5c-0.2,0.1-0.4,0.2-0.7,0.3C96.7,12.9,96.4,13,96,13h-0.3c-0.5,0-0.8-0.1-0.9-0.2
		c-0.2-0.1-0.3-0.2-0.4-0.3c-0.1-0.1-0.2-0.3-0.2-0.5C94.2,11.7,94.3,11.5,94.3,11.3z M95,11.4c0.4-0.1,0.6-0.2,0.8-0.4
		c0.1-0.1,0.2-0.2,0.2-0.3c0-0.1-0.1-0.1-0.3,0c-0.2,0.1-0.3,0.2-0.4,0.3C95.2,11.2,95.1,11.3,95,11.4z"/>
</g>
<g>
	<circle fill="#EC9F23" cx="69.5" cy="10.1" r="4.9"/>
	<g>
		<path fill="#FFFFFF" d="M67.5,8.1c0-0.1,0.1-0.2,0.1-0.4c0.1-0.1,0.2-0.2,0.3-0.3c0.1-0.1,0.2-0.1,0.3-0.1c0.1,0,0.2,0,0.4,0.1
			c0.1,0.1,0.3,0.1,0.4,0.2c0.1,0.1,0.3,0.1,0.4,0.1c0.2,0,0.3,0,0.5,0c0.2,0,0.3,0,0.5-0.1c0.2-0.1,0.3-0.2,0.3-0.2
			c0.1,0,0.1-0.1,0.2-0.1c0.1,0,0.1,0,0.2,0c0,0,0.1,0.1,0.1,0.1c0,0,0.1,0.1,0.1,0.1c0,0-0.1,0.1-0.1,0.2C71.1,7.8,71,7.9,70.9,8
			c-0.1,0.1-0.2,0.2-0.4,0.2c-0.1,0.1-0.3,0.2-0.4,0.4c-0.2,0.2-0.4,0.4-0.6,0.6c-0.2,0.2-0.4,0.4-0.6,0.7s-0.4,0.6-0.7,1.1
			c-0.3,0.5-0.6,0.9-0.8,1.4c-0.3,0.5-0.5,0.8-0.7,1.1c-0.2,0.2-0.3,0.4-0.4,0.6s-0.2,0.2-0.3,0.2c-0.2,0-0.4-0.1-0.5-0.1
			c-0.1-0.1-0.2-0.1-0.2-0.2c0-0.1,0.1-0.2,0.2-0.3c0.1-0.1,0.3-0.4,0.7-0.7c0.3-0.4,0.7-0.8,1.1-1.4c0.4-0.6,0.7-1,0.9-1.3
			c0.2-0.3,0.4-0.6,0.6-0.8c0.2-0.2,0.4-0.5,0.6-0.7c0.2-0.2,0.3-0.3,0.4-0.4s0-0.1-0.1-0.1c-0.1,0-0.3,0-0.4-0.1
			C69,8,68.9,8,68.8,8c-0.1,0-0.3,0-0.4,0.1c-0.1,0.1-0.2,0.2-0.3,0.3s-0.2,0.1-0.3,0C67.6,8.3,67.5,8.2,67.5,8.1z"/>
		<path fill="#FFFFFF" d="M71.8,8.6c-0.2,0.1-0.3,0.2-0.4,0.3c-0.1,0.1-0.3,0.2-0.6,0.4c0.4,0.1,0.6,0.1,0.8,0.2
			c0.2,0.1,0.3,0.2,0.5,0.3c0.2,0.1,0.3,0.3,0.4,0.4s0.1,0.3,0.1,0.5c0,0.2,0,0.4-0.2,0.5c-0.1,0.1-0.3,0.3-0.5,0.4
			c-0.2,0.1-0.6,0.2-1.1,0.2h-0.4c-0.3-0.1-0.5-0.2-0.5-0.4c0-0.2,0-0.3,0-0.3c0-0.1,0.1-0.1,0.2-0.2s0.2-0.1,0.3-0.1
			c0.1,0,0.2,0.1,0.2,0.2c0,0.1,0.1,0.2,0.3,0.2c0.2,0,0.3,0,0.5,0c0.2,0,0.3-0.1,0.3-0.2s0.1-0.2,0.1-0.4c0-0.2-0.1-0.3-0.2-0.5
			c-0.1-0.2-0.2-0.3-0.4-0.3c-0.2-0.1-0.3-0.1-0.4-0.1c-0.1,0-0.3,0.1-0.4,0.1c-0.2,0.1-0.3,0.1-0.4,0s-0.2-0.2-0.2-0.4
			c0.1-0.1,0.2-0.3,0.5-0.5c0.3-0.2,0.6-0.4,0.8-0.6c0.2-0.2,0.4-0.4,0.5-0.5c0.1-0.1,0.3-0.2,0.7-0.2c0.4,0,0.7,0,0.9,0
			c0.2,0,0.5,0,0.7-0.1c0.2,0,0.4-0.1,0.6-0.1c0.2,0,0.4-0.1,0.7-0.2c0.3,0,0.5,0.2,0.5,0.4c-0.2,0.2-0.5,0.3-0.7,0.3
			c-0.3,0-0.6,0.1-0.9,0.1c-0.3,0-0.6,0-0.9,0c-0.3,0-0.6,0-0.9,0C72.2,8.3,72,8.5,71.8,8.6z"/>
	</g>
</g>
</svg>
