<svg xmlns="http://www.w3.org/2000/svg" viewBox="0 0 280 52" fill="#fff"><path d="M5.71 23.37c0-1-.14-3.15-.14-3.86h1.78c0 1 .06 2.14.12 2.41h.09a5.13 5.13 0 014.7-2.77 4.08 4.08 0 014.13 3 4.88 4.88 0 014.67-3c4.28 0 5.23 2.92 5.23 5.92v8.18h-1.78v-8.09c0-2.23-.63-4.4-3.45-4.4-3.3 0-4.17 2.79-4.17 4.75v7.74h-1.78V25c0-2.53-.92-4.22-2.85-4.22-2.65 0-4.76 1.84-4.76 5.62v6.87H5.71zM37 26.35c-3 0-5.94.74-5.94 3.09 0 1.7 1.63 2.56 3.12 2.56 3.81 0 4.78-2.44 4.78-4.73v-.92zm3.57 1.13a41.87 41.87 0 00.27 5.77h-1.71A13.25 13.25 0 0139 31h-.06a5 5 0 01-4.81 2.58c-2.35 0-4.85-1.16-4.85-4.07 0-4.19 4.91-4.61 7.61-4.61h2.08v-.83c0-2.38-1.66-3.33-3.86-3.33a6.19 6.19 0 00-4.19 1.54l-1-1.21a8 8 0 015.23-1.94c3.33 0 5.47 1.49 5.47 5zm7.99 10.02c-.69 1.75-1.82 2.88-3.78 2.88a6.87 6.87 0 01-1.78-.27l.17-1.66a6 6 0 001.61.33c1.31 0 1.88-1.22 2.29-2.29l1.25-3.19-5.56-13.79h2l4.54 11.57 4.43-11.57h1.91zm17.36-16.39H62v9A1.76 1.76 0 0063.9 32a5.25 5.25 0 002-.48l.15 1.61a8 8 0 01-2.32.47 3.2 3.2 0 01-3.54-3.54v-8.95h-3v-1.6h3v-4H62v4h3.92zm3.78 2.26c0-1-.15-3.15-.15-3.86h1.78c0 1 .06 2.14.12 2.41a4.88 4.88 0 014.37-2.77 4.08 4.08 0 011 .15l-.21 1.76a1.87 1.87 0 00-.68-.12c-3.09 0-4.49 2.14-4.49 4.81v7.5H69.7zm37.3 0c0-1-.15-3.15-.15-3.86h1.79a21.22 21.22 0 00.12 2.41h.08a5.15 5.15 0 014.7-2.77c4.28 0 5.23 2.92 5.23 5.92v8.18h-1.78v-8.09c0-2.23-.62-4.4-3.45-4.4-2.65 0-4.76 1.84-4.76 5.62v6.87H107zm15-3.86h1.79v13.74H122zm.9-6.78a1.34 1.34 0 11-1.34 1.34 1.33 1.33 0 011.34-1.34m16.25 18.49a6.36 6.36 0 01-5.06 2.38 7 7 0 01-7.22-7.22 7 7 0 017.22-7.23 6.73 6.73 0 015.12 2.38l-1.43 1.07a5 5 0 00-3.69-1.84 5.32 5.32 0 00-5.44 5.62 5.32 5.32 0 005.44 5.62 4.78 4.78 0 003.69-1.91zm3.42-1.48a4.44 4.44 0 004 2.26c1.55 0 3.15-.95 3.15-2.53 0-3.78-8.14-1.13-8.14-6.36 0-2.68 2.43-4 4.69-4s4 .84 4.85 2.59l-1.61 1a3.35 3.35 0 00-3.24-1.93c-1.28 0-2.91.77-2.91 2.2 0 3.72 8.15.83 8.15 6.39 0 2.83-2.35 4.25-5 4.25a6 6 0 01-5.51-2.8zM90.61 19c-7.48 0-13.54 6.6-13.6 14.74a18.51 18.51 0 012.12.87 23.47 23.47 0 012.3 1.25 11 11 0 01-.18-2c0-5.63 4.19-10.22 9.36-10.25S100 28.25 100 33.88a21 21 0 01-.26 2.65 9.09 9.09 0 004.49-2.77C104.14 25.62 98.08 19 90.61 19" fill="#353e47"/><path d="M103.19 37.11a16.55 16.55 0 01-12.36 4.29 19.06 19.06 0 01-7.66-2.25c-.53-.3-1.25-.7-1.61-.93s-.71-.47-1.07-.68a23 23 0 00-2.19-1.17 17.39 17.39 0 00-9.48-1.55 26.2 26.2 0 00-11.09 4.24 22.94 22.94 0 0110.46-1.65 15.8 15.8 0 018.09 3.14c.6.44 1.17.93 1.74 1.44.28.25.55.54.82.8l1.26 1.1a17.54 17.54 0 006.38 3.43 14.56 14.56 0 0011.58-1.46 14.34 14.34 0 005.07-5.09c1.77-3.19 1.41-5.09 1.44-5.06-.41.46-.86.93-1.36 1.39" fill="#58c8df"/><path fill="#353e47" d="M170.46 15.65h.35v22.7h-.35z"/><path d="M210 33l1.3-.18c3.11-.43 4.68-2 4.68-4.59s-2.31-3.38-4.47-3.08l-1.51.2zm1.79 2.44l-4.48.62L207 36V23h.26l4.11-.57c4.85-.67 7.63 1.32 7.63 5.46 0 4.43-3.76 7-7.26 7.45m13.26-4.7a2 2 0 002.11-2.17 2.11 2.11 0 10-4.21 0 2 2 0 002.1 2.17m0-6.64a4.48 4.48 0 11-4.74 4.47A4.45 4.45 0 01225 24m5.82-5.26h2.63V32.2h-2.63zm8.6 10.42a2 2 0 002.11-2.16 2.11 2.11 0 10-4.21 0 2 2 0 002.1 2.16m-4.53-6.42h2.43v1.12a3.3 3.3 0 012.68-1.33 4.08 4.08 0 014.19 4.4c0 2.37-1.47 4.55-3.89 4.55a3.21 3.21 0 01-2.71-1.12v4.91h-2.64zm12.64-4.19v5.9a2.45 2.45 0 012.47-1.37c2.66 0 3.16 1.76 3.16 4v5.12l-2.68-.2v-4.35c0-1 0-2.25-1.37-2.25s-1.58 1.07-1.58 2.18v4.24h-2.63V18.55zm7.23 5.56h2.63v8.54l-2.63-.19v-8.35zm1.32-4.21a1.53 1.53 0 11-1.53 1.52 1.52 1.52 0 011.53-1.52m3.1 4.67h2.53v1.16a2.79 2.79 0 012.5-1.37c2.67 0 3.16 1.76 3.16 4v5.83l-2.63-.57v-4.7c0-1 0-2.24-1.38-2.24s-1.58 1.07-1.58 2.17v4.25l-2.63-.37z"/><path d="M251.58 18.29a3.11 3.11 0 01-.94.61 8.53 8.53 0 01-1.58.29H248a13.46 13.46 0 01.08-2.2.58.58 0 01.09-.36 1.47 1.47 0 01.55-.91 2.15 2.15 0 011.41-.54h.12a2 2 0 011.33.54 1.63 1.63 0 010 2.57m2.73-.22c0-.18.07-.4.11-.61a3.94 3.94 0 00-.07-1.27 3.41 3.41 0 00-.29-.87 5.69 5.69 0 00-.33-.65 4 4 0 00-2.27-1.67 3.24 3.24 0 00-1.3-.14h-.11a3.2 3.2 0 00-.8.14 4.89 4.89 0 00-1.08.36 8.29 8.29 0 00-1 .58 1.14 1.14 0 00-.22.22 5 5 0 00-1.19 1.37 5.87 5.87 0 00-.58 2.17l-.07.9a3.33 3.33 0 01-2.28-.83 9.5 9.5 0 01-1.15-1.2c-.8-1.26-1.41-2.31-2-3.18a1.29 1.29 0 00-.25-.36c-.19-.32-.37-.61-.55-.87a24 24 0 00-4.62-5.35 9.76 9.76 0 00-1-.69 5.94 5.94 0 00-1.69-.9c-.3-.07-.55-.14-.8-.18a5.92 5.92 0 00-2.46.36 3.18 3.18 0 00-.72.29 5.85 5.85 0 00-1.19.83 3 3 0 00-.44.51 3.74 3.74 0 012.57.25 2.7 2.7 0 011.26 2.46c0 1-.65 1.8-2 2.27a4.35 4.35 0 01-4.08-.57 9.41 9.41 0 00-1.38-1.12 7.14 7.14 0 00-.76-.54c-.4-.29-.87-.55-1.3-.8a4.36 4.36 0 00-.91-.47 2.62 2.62 0 00-.83-.36A5 5 0 00217 7.7a6.17 6.17 0 00-2.71.36 2.78 2.78 0 00-.73.4 3.44 3.44 0 00-1 .87 4.7 4.7 0 00-.72 1.26 2.89 2.89 0 012.78-.65 3.14 3.14 0 012.06 2 2.74 2.74 0 01-.54 2.86 6.11 6.11 0 01-.83.72 3.31 3.31 0 01-2.64.36l-.33-.11a9.19 9.19 0 01-1.95-.94c-1.05-.57-1.73-.94-2.06-1.08l-.25-.11a10.21 10.21 0 00-1.3-.47A8.32 8.32 0 00203 13l-1 .22a12.32 12.32 0 00-2.56 1.23 8.14 8.14 0 00-1.44 1.24 8.59 8.59 0 00-.83 1 11.61 11.61 0 00-.72 1.88 5.1 5.1 0 00-.18 1c-.44 3.58 2.46 6.4 8.56 8.46a3.65 3.65 0 01.76-4.19 7.82 7.82 0 014.41-2.23 6.87 6.87 0 011.27-.21l1.12-.08 1.55.15a8.23 8.23 0 011.59.4 6.67 6.67 0 013.4 2.45l.18-.29.26-.25.46-.47a38 38 0 014.2-3.62 12.76 12.76 0 014.26-2.06 10 10 0 012.93-.36 12.68 12.68 0 013 .44l7.78 2.71s2.27.6 3 .72c2.42.19 2.7.19 2.7.19h1.42a6.11 6.11 0 003-.69 4.27 4.27 0 001.77-1.52 1.1 1.1 0 00.22-.39c.11-.22.18-.4.25-.58z"/><path d="M251.61 15.75a2 2 0 00-1.32-.54h-.13a2.15 2.15 0 00-1.41.54 1.5 1.5 0 00-.55.91.52.52 0 00-.09.36 13.46 13.46 0 00-.08 2.2h1.06a7.9 7.9 0 001.58-.29 3.11 3.11 0 00.94-.61 1.61 1.61 0 000-2.57z" fill="#353e47"/><path d="M268.27 27a4.7 4.7 0 00-.29-1.75 2 2 0 00-.24-.46 3 3 0 00-2.93-1.44 3.13 3.13 0 00-2.6 1.27v-.82c0-.33-.1-.36-.37-.36h-3.78a2.59 2.59 0 00.77-1.83 2.55 2.55 0 00-4.17-2l.09-.14a5.14 5.14 0 00-.18-5.28 4.49 4.49 0 00-2.69-2.08 6 6 0 00-3.23.1 6.44 6.44 0 00-4.05 3.83l-.12.36a5.17 5.17 0 00-.22.86v.25a3.33 3.33 0 01-.76-.42l-.08-.06a5.11 5.11 0 01-.89-1c-1.81-2.85-3.5-5.89-5.84-8.35A13.18 13.18 0 00232 4.36a5.26 5.26 0 00-3.35 0 7.53 7.53 0 00-2 .85 11.72 11.72 0 00-2.17 1.86 16.14 16.14 0 00-1.76 2.42c-1.62-1.19-3.51-2.49-5.56-2.66h-.08a6.34 6.34 0 00-3.51.65 16.57 16.57 0 00-4.18 4.13 7.67 7.67 0 01-1 1.18 12 12 0 00-4.23-.79 11.43 11.43 0 00-5.16 1.55 8.5 8.5 0 00-1.1.79c-.18.15-.35.3-.51.46a13.44 13.44 0 00-1 1 9.78 9.78 0 00-1.88 5.35c-.05.53-.06 1.06-.07 1.59a14.8 14.8 0 00.33 3.11 10.57 10.57 0 002 4.33 11.62 11.62 0 00.93 1.05 10.68 10.68 0 004.7 2.85 26.59 26.59 0 003 .63 37.83 37.83 0 01-1.62 6c5.67.36 13.73-.56 18.87-3.87a18.31 18.31 0 002.71.43 15.27 15.27 0 001.92 0 10.26 10.26 0 001.69-.18v4.34c0 .03.07 0 .15 0h4.38a.14.14 0 01.11 0l4.92-5.24c2.1-.07 4.79-.11 6.92-.07s4.34.18 6.47.4 4.33.47 6.5.79 3.78.79 6 1.27h.07s.07 0 .11-.08l3.63-4v-6.66c.06-.28.05-.54.04-.84zm-15.19-7a3.69 3.69 0 01-.4.29c-.19.13-.38.24-.58.35a6.1 6.1 0 01-3 .69h-1.43s-.28 0-2.69-.19c-.7-.12-3-.72-3-.72l-2.16-.77-3.89-1.39a13.79 13.79 0 00-4.68-1.06 9.77 9.77 0 00-2.93.37 12.54 12.54 0 00-4.26 2c-.88.65-1.74 1.32-2.57 2s-1.4 1.51-2.15 2.24c-.33.31-.55-.17-.74-.38a9.82 9.82 0 00-.81-.77 6 6 0 00-1.38-.9 9.14 9.14 0 00-3.59-.86 9.89 9.89 0 00-2.17.13 8.71 8.71 0 00-5.06 2.41 4.22 4.22 0 00-.76 4.56c0-.05-.36-.13-.42-.15l-.42-.15-.82-.31c-.52-.2-1-.42-1.54-.66a13.76 13.76 0 01-2.46-1.51 11 11 0 01-1.73-1.61 4.57 4.57 0 01-1-1.79 6.53 6.53 0 01-.11-2.85 8.11 8.11 0 01.21-.85 6.23 6.23 0 01.58-1.32 7.74 7.74 0 01.44-.67 7.45 7.45 0 011.88-1.75 12.32 12.32 0 012.56-1.12l1-.22a8.33 8.33 0 013.87.18 10.21 10.21 0 011.3.47l.25.11c.33.15 1 .51 2.06 1.08a9 9 0 001.95.94l.33.11a3.28 3.28 0 002.63-.36 5.63 5.63 0 00.84-.72 2.73 2.73 0 00.54-2.85 3.14 3.14 0 00-2.06-2 2.89 2.89 0 00-2.78.65 4.7 4.7 0 01.72-1.26 3.49 3.49 0 011-.87 2.43 2.43 0 01.72-.4 6.17 6.17 0 012.71-.36 5 5 0 011.44.36 2.72 2.72 0 01.83.36 4.36 4.36 0 01.91.47c.43.25.9.51 1.3.8a7.14 7.14 0 01.76.54 9.41 9.41 0 011.38 1.12 4.38 4.38 0 004.08.58c1.37-.48 2.06-1.23 2-2.28a2.7 2.7 0 00-1.26-2.46A3.75 3.75 0 00226 7a3 3 0 01.44-.51 5.85 5.85 0 011.19-.83 3.18 3.18 0 01.72-.29 5.94 5.94 0 012.43-.37c.25 0 .51.11.79.18a6 6 0 011.7.9 9.76 9.76 0 011 .69 21.2 21.2 0 014.16 4.65c.8 1.17 1.51 2.4 2.27 3.6a10.92 10.92 0 002.13 2.74 3.33 3.33 0 002.28.83l.07-.9a5.87 5.87 0 01.58-2.17 5.41 5.41 0 013.89-2.65 4.3 4.3 0 011.82.12 4 4 0 012.27 1.66 5.69 5.69 0 01.33.65 3.41 3.41 0 01.29.87 4.53 4.53 0 01-.19 2.31 4.14 4.14 0 01-.31.59 3.47 3.47 0 01-.78.93zm16.69 4.84v.44h.62v2.21h.56v-2.21h.61v-.44h-1.79zm2.58 2.65v-2.04h.01l.49 2.04h.53l.5-2.04h.01v2.04h.54v-2.65h-.86l-.44 1.8h-.01l-.42-1.8h-.89v2.65h.54z" fill="#353e47"/><path d="M210.42 33.12c.35 0 1.17-.15 1.17-.15 3.11-.43 4.66-2 4.68-4.59a3.74 3.74 0 00-1.79-3.5 3.89 3.89 0 00-2.73-.14 5.89 5.89 0 00-.92.32c-.24.11-.56.25-.54.57 0 .09.07.52.09.64.07.59.12 1.17.19 1.75l.06.54a20.36 20.36 0 010 2.59c0 .21-.14 1.68-.2 2m1.57 2.63a33.42 33.42 0 01-4.74.61c.1-.54.24-1.36.27-1.55a22.74 22.74 0 00.3-2.6 15.32 15.32 0 00-.5-5.13c-.09-.34-.35-.91-.81-.83-.89.15-1 1.6-1 1.6a3 3 0 01.38-3.25c1.42-1.91 4-2.65 6.26-2.72a7.23 7.23 0 014.86 1.28 5.77 5.77 0 011.06 1.15 6.64 6.64 0 011.22 3.8c0 4.43-3.88 7.06-7.3 7.64m13.12-4.97a2 2 0 002.11-2.16 2.11 2.11 0 10-4.22 0 2 2 0 002.11 2.16m0-6.64a4.48 4.48 0 11-4.74 4.48 4.45 4.45 0 014.74-4.48m5.87-5.26h2.63v13.46h-2.63zm8.41 10.43a2 2 0 002.11-2.16 2.11 2.11 0 10-4.21 0 2 2 0 002.1 2.16m-4.53-6.43h2.43V24a3.33 3.33 0 012.7-1.3 4.09 4.09 0 014.2 4.4c0 2.38-1.48 4.55-3.9 4.55a3.21 3.21 0 01-2.71-1.12v4.92h-2.64zm13.02-4.19v5.9a2.49 2.49 0 012.39-1.37c2.67 0 3.16 1.76 3.16 4v5.08l-2.63-.19v-4.32c0-1 0-2.25-1.37-2.25s-1.58 1.07-1.58 2.18V32h-2.64V18.72zM255 24.2h2.63v8.53l-2.63-.18V24.2zm1.32-4.2a1.53 1.53 0 11-1.53 1.53 1.53 1.53 0 011.53-1.53m2.68 4.74h2.52v1.16a2.76 2.76 0 012.48-1.37c2.67 0 3.16 1.76 3.16 4v5.87l-2.63-.56v-4.75c0-1 0-2.24-1.37-2.24s-1.58 1.07-1.58 2.18v4.25L259 32.9z"/></svg>